<mxfile host="65bd71144e">
    <diagram name="シンプル業務フロー図テンプレート" id="simple-process-flow-template">
        <mxGraphModel dx="1080" dy="1001" grid="1" gridSize="10" guides="1" tooltips="1" connect="1" arrows="1" fold="1" page="1" pageScale="1" pageWidth="1654" pageHeight="1169" math="0" shadow="0">
            <root>
                <mxCell id="0"/>
                <mxCell id="1" parent="0"/>
                <mxCell id="title" value="[プロセス名] 業務フロー図" style="text;html=1;strokeColor=none;fillColor=none;align=center;verticalAlign=middle;whiteSpace=wrap;rounded=0;fontSize=18;fontStyle=1" parent="1" vertex="1">
                    <mxGeometry x="600" y="20" width="400" height="40" as="geometry"/>
                </mxCell>
                <mxCell id="2" value="" style="swimlane;startSize=0;" parent="1" vertex="1">
                    <mxGeometry x="20" y="120" width="1530" height="900" as="geometry"/>
                </mxCell>
                <mxCell id="3" value="社外&lt;br&gt;（取引先/顧客）" style="swimlane;html=1;startSize=60;fillColor=#F5F5F5;" parent="2" vertex="1">
                    <mxGeometry width="170" height="900" as="geometry"/>
                </mxCell>
                <mxCell id="start" value="開始" style="ellipse;whiteSpace=wrap;html=1;fillColor=#D5E8D4;strokeColor=#82B366;" parent="3" vertex="1">
                    <mxGeometry x="35" y="80" width="100" height="40" as="geometry"/>
                </mxCell>
                <mxCell id="4" value="フロント担当者&lt;br&gt;（○○部門）" style="swimlane;html=1;startSize=60;fillColor=#E6F3FF;" parent="2" vertex="1">
                    <mxGeometry x="170" width="170" height="900" as="geometry"/>
                </mxCell>
                <mxCell id="p001" value="プロセス名&lt;br&gt;(P-001)" style="rounded=1;whiteSpace=wrap;html=1;fillColor=#DAEEFF;strokeColor=#000000;" parent="4" vertex="1">
                    <mxGeometry x="25" y="120" width="120" height="60" as="geometry"/>
                </mxCell>
                <mxCell id="f001" value="申請書&lt;br&gt;(F-001)" style="shape=note;whiteSpace=wrap;html=1;backgroundOutline=1;darkOpacity=0.05;fillColor=#FFF2CC;strokeColor=#D6B656;" parent="4" vertex="1">
                    <mxGeometry x="25" y="200" width="120" height="60" as="geometry"/>
                </mxCell>
                <mxCell id="5" value="フロント承認者&lt;br&gt;（○○責任者）" style="swimlane;html=1;startSize=60;fillColor=#E6F3FF;" parent="2" vertex="1">
                    <mxGeometry x="340" width="170" height="900" as="geometry"/>
                </mxCell>
                <mxCell id="p002" value="承認判断&lt;br&gt;(P-002)" style="rhombus;whiteSpace=wrap;html=1;fillColor=#FFE6E6;" parent="5" vertex="1">
                    <mxGeometry x="35" y="280" width="100" height="80" as="geometry"/>
                </mxCell>
                <mxCell id="f002" value="承認データ&lt;br&gt;(F-002)" style="shape=note;whiteSpace=wrap;html=1;backgroundOutline=1;darkOpacity=0.05;fillColor=#FFF2CC;strokeColor=#D6B656;" parent="5" vertex="1">
                    <mxGeometry x="35" y="380" width="120" height="60" as="geometry"/>
                </mxCell>
                <mxCell id="6" value="ミドルオフィス担当者&lt;br&gt;（○○部）" style="swimlane;html=1;startSize=60;fillColor=#F0F8E6;" parent="2" vertex="1">
                    <mxGeometry x="510" width="170" height="900" as="geometry"/>
                </mxCell>
                <mxCell id="p003" value="プロセス名&lt;br&gt;(P-003)" style="rounded=1;whiteSpace=wrap;html=1;fillColor=#DAEEFF;strokeColor=#000000;" parent="6" vertex="1">
                    <mxGeometry x="25" y="380" width="120" height="60" as="geometry"/>
                </mxCell>
                <mxCell id="f003" value="処理データ&lt;br&gt;(F-003)" style="shape=note;whiteSpace=wrap;html=1;backgroundOutline=1;darkOpacity=0.05;fillColor=#FFF2CC;strokeColor=#D6B656;" parent="6" vertex="1">
                    <mxGeometry x="25" y="460" width="120" height="60" as="geometry"/>
                </mxCell>
                <mxCell id="7" value="ミドルオフィス承認者&lt;br&gt;（○○部長）" style="swimlane;html=1;startSize=60;fillColor=#F0F8E6;" parent="2" vertex="1">
                    <mxGeometry x="680" width="170" height="900" as="geometry"/>
                </mxCell>
                <mxCell id="p004" value="承認判断&lt;br&gt;(P-004)" style="rhombus;whiteSpace=wrap;html=1;fillColor=#FFE6E6;" parent="7" vertex="1">
                    <mxGeometry x="35" y="500" width="100" height="80" as="geometry"/>
                </mxCell>
                <mxCell id="f004" value="承認データ&lt;br&gt;(F-004)" style="shape=note;whiteSpace=wrap;html=1;backgroundOutline=1;darkOpacity=0.05;fillColor=#FFF2CC;strokeColor=#D6B656;" parent="7" vertex="1">
                    <mxGeometry x="25" y="390" width="120" height="60" as="geometry"/>
                </mxCell>
                <mxCell id="8" value="バックオフィス担当者&lt;br&gt;（経理/財務）" style="swimlane;html=1;startSize=60;fillColor=#FFF0E6;" parent="2" vertex="1">
                    <mxGeometry x="850" width="170" height="900" as="geometry"/>
                </mxCell>
                <mxCell id="p005" value="プロセス名&lt;br&gt;(P-005)" style="rounded=1;whiteSpace=wrap;html=1;fillColor=#DAEEFF;strokeColor=#000000;" parent="8" vertex="1">
                    <mxGeometry x="25" y="510" width="120" height="60" as="geometry"/>
                </mxCell>
                <mxCell id="f005" value="処理データ&lt;br&gt;(F-005)" style="shape=note;whiteSpace=wrap;html=1;backgroundOutline=1;darkOpacity=0.05;fillColor=#FFF2CC;strokeColor=#D6B656;" parent="8" vertex="1">
                    <mxGeometry x="20" y="290" width="120" height="60" as="geometry"/>
                </mxCell>
                <mxCell id="9" value="バックオフィス承認者&lt;br&gt;（○○部長）" style="swimlane;html=1;startSize=60;fillColor=#FFF0E6;" parent="2" vertex="1">
                    <mxGeometry x="1020" width="170" height="900" as="geometry"/>
                </mxCell>
                <mxCell id="p006" value="承認判断&lt;br&gt;(P-006)" style="rhombus;whiteSpace=wrap;html=1;fillColor=#FFE6E6;" parent="9" vertex="1">
                    <mxGeometry x="35" y="580" width="100" height="80" as="geometry"/>
                </mxCell>
                <mxCell id="f006" value="承認データ&lt;br&gt;(F-006)" style="shape=note;whiteSpace=wrap;html=1;backgroundOutline=1;darkOpacity=0.05;fillColor=#FFF2CC;strokeColor=#D6B656;" parent="9" vertex="1">
                    <mxGeometry x="15" y="500" width="120" height="60" as="geometry"/>
                </mxCell>
                <mxCell id="10" value="社内システム&lt;br&gt;（ERP/基幹）" style="swimlane;html=1;startSize=60;fillColor=#F0E6FF;" parent="2" vertex="1">
                    <mxGeometry x="1190" width="170" height="900" as="geometry"/>
                </mxCell>
                <mxCell id="s001" value="システム処理&lt;br&gt;(S-001)" style="rectangle;whiteSpace=wrap;html=1;fillColor=#E8D8FF;strokeColor=#000000;" parent="10" vertex="1">
                    <mxGeometry x="20" y="670" width="120" height="60" as="geometry"/>
                </mxCell>
                <mxCell id="f007" value="システムデータ&lt;br&gt;(F-007)" style="shape=note;whiteSpace=wrap;html=1;backgroundOutline=1;darkOpacity=0.05;fillColor=#FFF2CC;strokeColor=#D6B656;" parent="10" vertex="1">
                    <mxGeometry x="20" y="740" width="120" height="60" as="geometry"/>
                </mxCell>
                <mxCell id="end" value="終了" style="ellipse;whiteSpace=wrap;html=1;fillColor=#F8CECC;strokeColor=#B85450;" parent="10" vertex="1">
                    <mxGeometry x="40" y="820" width="80" height="40" as="geometry"/>
                </mxCell>
                <mxCell id="flow8" style="edgeStyle=orthogonalEdgeStyle;rounded=0;orthogonalLoop=1;jettySize=auto;html=1;" parent="10" source="s001" target="end" edge="1">
                    <mxGeometry relative="1" as="geometry"/>
                </mxCell>
                <mxCell id="11" value="社外サービス&lt;br&gt;（SaaS/銀行）" style="swimlane;html=1;startSize=60;fillColor=#F5F5F5;" parent="2" vertex="1">
                    <mxGeometry x="1360" width="170" height="900" as="geometry"/>
                </mxCell>
                <mxCell id="12" style="edgeStyle=orthogonalEdgeStyle;rounded=0;orthogonalLoop=1;jettySize=auto;html=1;exitX=1;exitY=0.5;exitDx=0;exitDy=0;" edge="1" parent="2" source="p002" target="p005">
                    <mxGeometry relative="1" as="geometry">
                        <mxPoint x="484.99999999999955" y="330.0000000000002" as="sourcePoint"/>
                        <mxPoint x="605.0000000000002" y="389.9999999999998" as="targetPoint"/>
                    </mxGeometry>
                </mxCell>
                <mxCell id="flow1" style="edgeStyle=orthogonalEdgeStyle;rounded=0;orthogonalLoop=1;jettySize=auto;html=1;" parent="1" source="start" target="p001" edge="1">
                    <mxGeometry relative="1" as="geometry"/>
                </mxCell>
                <mxCell id="flow2" style="edgeStyle=orthogonalEdgeStyle;rounded=0;orthogonalLoop=1;jettySize=auto;html=1;" parent="1" source="p001" target="p002" edge="1">
                    <mxGeometry relative="1" as="geometry"/>
                </mxCell>
                <mxCell id="flow3" style="edgeStyle=orthogonalEdgeStyle;rounded=0;orthogonalLoop=1;jettySize=auto;html=1;exitX=0.5;exitY=1;exitDx=0;exitDy=0;entryX=0;entryY=0.5;entryDx=0;entryDy=0;" parent="1" source="p002" target="p003" edge="1">
                    <mxGeometry relative="1" as="geometry"/>
                </mxCell>
                <mxCell id="flow4" style="edgeStyle=orthogonalEdgeStyle;rounded=0;orthogonalLoop=1;jettySize=auto;html=1;" parent="1" source="p003" target="p004" edge="1">
                    <mxGeometry relative="1" as="geometry"/>
                </mxCell>
                <mxCell id="flow5" style="edgeStyle=orthogonalEdgeStyle;rounded=0;orthogonalLoop=1;jettySize=auto;html=1;" parent="1" source="p004" target="p005" edge="1">
                    <mxGeometry relative="1" as="geometry"/>
                </mxCell>
                <mxCell id="flow6" style="edgeStyle=orthogonalEdgeStyle;rounded=0;orthogonalLoop=1;jettySize=auto;html=1;" parent="1" source="p005" target="p006" edge="1">
                    <mxGeometry relative="1" as="geometry"/>
                </mxCell>
                <mxCell id="flow7" style="edgeStyle=orthogonalEdgeStyle;rounded=0;orthogonalLoop=1;jettySize=auto;html=1;" parent="1" source="p006" target="s001" edge="1">
                    <mxGeometry relative="1" as="geometry"/>
                </mxCell>
                <mxCell id="legend-box" value="" style="rounded=0;whiteSpace=wrap;html=1;fillColor=#F5F5F5;strokeColor=#666666;strokeWidth=1;" parent="1" vertex="1">
                    <mxGeometry x="20" y="1040" width="1200" height="120" as="geometry"/>
                </mxCell>
                <mxCell id="legend-title" value="【凡例】" style="text;html=1;fontSize=14;fontStyle=1;verticalAlign=middle;align=left;" parent="1" vertex="1">
                    <mxGeometry x="30" y="1050" width="100" height="30" as="geometry"/>
                </mxCell>
                <mxCell id="legend-process" value="業務プロセス" style="rounded=1;whiteSpace=wrap;html=1;fillColor=#DAEEFF;" parent="1" vertex="1">
                    <mxGeometry x="30" y="1090" width="100" height="40" as="geometry"/>
                </mxCell>
                <mxCell id="legend-decision" value="承認・判断" style="rhombus;whiteSpace=wrap;html=1;fillColor=#FFE6E6;" parent="1" vertex="1">
                    <mxGeometry x="140" y="1090" width="80" height="40" as="geometry"/>
                </mxCell>
                <mxCell id="legend-system" value="システム処理" style="rectangle;whiteSpace=wrap;html=1;fillColor=#E8D8FF;" parent="1" vertex="1">
                    <mxGeometry x="230" y="1090" width="100" height="40" as="geometry"/>
                </mxCell>
                <mxCell id="legend-file" value="ファイル・データ" style="shape=note;whiteSpace=wrap;html=1;backgroundOutline=1;darkOpacity=0.05;fillColor=#FFF2CC;strokeColor=#D6B656;" parent="1" vertex="1">
                    <mxGeometry x="340" y="1090" width="100" height="40" as="geometry"/>
                </mxCell>
                <mxCell id="legend-flow-normal" value="通常フロー" style="text;html=1;fontSize=12;verticalAlign=middle;align=left;" parent="1" vertex="1">
                    <mxGeometry x="460" y="1090" width="80" height="20" as="geometry"/>
                </mxCell>
                <mxCell id="legend-line-normal" value="" style="endArrow=classic;html=1;strokeWidth=1;" parent="1" edge="1">
                    <mxGeometry width="50" height="50" relative="1" as="geometry">
                        <mxPoint x="540" y="1100" as="sourcePoint"/>
                        <mxPoint x="610" y="1100" as="targetPoint"/>
                    </mxGeometry>
                </mxCell>
                <mxCell id="legend-flow-system" value="システム連携" style="text;html=1;fontSize=12;verticalAlign=middle;align=left;" parent="1" vertex="1">
                    <mxGeometry x="460" y="1110" width="80" height="20" as="geometry"/>
                </mxCell>
                <mxCell id="legend-line-system" value="" style="endArrow=classic;html=1;strokeWidth=1;dashed=1;" parent="1" edge="1">
                    <mxGeometry width="50" height="50" relative="1" as="geometry">
                        <mxPoint x="540" y="1120" as="sourcePoint"/>
                        <mxPoint x="610" y="1120" as="targetPoint"/>
                    </mxGeometry>
                </mxCell>
                <mxCell id="legend-reference" value="※ P-XXX: プロセス番号、S-XXX: システム連携番号、F-XXX: ファイル・データ番号は業務記述書と対応" style="text;html=1;fontSize=11;verticalAlign=middle;align=left;fontStyle=2;" parent="1" vertex="1">
                    <mxGeometry x="630" y="1095" width="380" height="30" as="geometry"/>
                </mxCell>
                <mxCell id="usage-note" value="【使用方法】&#10;1. このテンプレートファイルをコピーして、新しいファイル名で保存&#10;2. タイトルをプロセス名に変更&#10;3. スイムレーンの部門名を実際の部門に変更（不要なレーンは削除）&#10;4. サンプル要素を削除し、実際のプロセスを配置&#10;5. プロセス番号（P-XXX）、システム連携番号（S-XXX）、ファイル・データ番号（F-XXX）を採番&#10;6. フロー線で接続（システム連携は破線）&#10;7. 業務記述書と連携番号を一致させる&#10;8. 時系列順に配置することを意識する" style="text;html=1;fontSize=11;verticalAlign=top;align=left;fillColor=#FFFFCC;strokeColor=#D6B656;whiteSpace=wrap;" parent="1" vertex="1">
                    <mxGeometry x="1250" y="1040" width="280" height="180" as="geometry"/>
                </mxCell>
            </root>
        </mxGraphModel>
    </diagram>
</mxfile>